<svg width="399" height="536" viewBox="0 0 399 536" fill="none" xmlns="http://www.w3.org/2000/svg">
<rect width="399" height="536" fill="#D9D9D9"/>
<g clip-path="url(#clip0_35_765)">
<rect width="434" height="811" fill="#AEE1DE"/>
<path d="M0.5 41.5C48.5 27.1666 76.9 -0.300034 52.5 84.5C28.1 169.3 139 74 168 147.5C196 230 263 191.5 243 278.5C193.475 493.933 273.5 385 263 341C249.159 283 492.7 229.7 333.5 408.5C174.3 587.3 232.5 600.333 281.5 584.5C354.667 514.667 450.6 441.4 249 707C47.4 972.6 249.333 784.333 375.5 657L436.5 584.5" stroke="#ACACAC" stroke-opacity="0.5"/>
<path d="M2 254C20.8333 224.167 58.3 135.5 65.5 223.5C72.7 311.5 106.5 358.667 109.5 365.5C114.768 377.5 122.5 425.3 104.5 480.5C86.5 535.7 152.5 599 79.5 623.5C35 626.5 68.5 737.9 114.5 703.5C160.5 669.1 152.333 762.5 142.5 813.5V844" stroke="#ACACAC" stroke-opacity="0.5"/>
<path d="M292.5 4.00001C307.5 -8.83333 336.6 -9.89999 333 88.5C329.4 186.9 402.167 113.833 439 65L454.5 38" stroke="#ACACAC" stroke-opacity="0.5"/>
</g>
<defs>
<clipPath id="clip0_35_765">
<rect width="434" height="811" fill="white"/>
</clipPath>
</defs>
</svg>
