<svg width="225" height="225" viewBox="0 0 225 225" fill="none" xmlns="http://www.w3.org/2000/svg">
<g clip-path="url(#clip0_64_737)">
<g filter="url(#filter0_d_64_737)">
<path d="M138.823 186.32C133.319 188.143 127.889 189.52 122.256 189.821C117.394 190.081 112.488 190.557 107.658 190.193C98.509 189.503 89.6218 187.446 81.2545 183.47C80.2688 183.001 78.9842 182.678 77.9491 182.873C69.312 184.507 60.6997 186.273 52.0834 188.016C51.0057 188.234 50.4166 187.907 49.6337 187.016C47.5404 184.634 45.1258 182.537 42.916 180.252C42.2503 179.564 41.3104 178.573 41.3942 177.82C41.9385 172.934 42.7556 168.079 43.4335 163.207C43.9361 159.595 44.2816 155.96 44.8492 152.359C45.3325 149.293 43.3991 147.037 42.3146 144.572C39.3048 137.731 36.9278 130.651 36.1847 123.287C35.5046 116.547 35.8961 109.68 36.0754 102.876C36.2395 96.6487 38.0647 90.7084 40.1875 84.9174C42.8745 77.5873 46.5637 70.7446 51.2982 64.5112C58.6156 54.8771 67.7756 47.4043 78.5969 42.0853C85.5117 38.6865 92.7358 35.9636 100.496 35.172C105.938 34.6169 111.41 33.8368 116.852 33.9493C123.604 34.0888 130.284 35.3782 136.777 37.3744C146.186 40.2675 154.873 44.7112 162.532 50.8137C170.553 57.2045 177.109 64.9462 182.094 74.051C185.448 80.176 187.867 86.6111 189.597 93.2783C190.737 97.6694 191.14 102.281 191.543 106.824C191.84 110.167 191.701 113.561 191.582 116.926C191.29 125.164 189.454 133.073 186.48 140.759C183.197 149.244 178.523 156.831 172.675 163.789C167.625 169.798 161.732 174.798 154.986 178.654C149.871 181.578 144.346 183.786 138.823 186.32ZM159.741 65.0388C157.974 63.421 156.308 61.6745 154.424 60.2068C144.244 52.2752 132.696 47.4404 119.876 46.2545C113.192 45.6361 106.407 45.9274 99.7409 47.4353C88.2321 50.0387 78.0897 55.2889 69.3891 63.1713C61.8268 70.0226 55.9695 78.155 52.1684 87.7192C49.2493 95.0643 47.4232 102.623 47.5047 110.538C47.5464 114.578 47.8427 118.641 48.3804 122.646C49.3877 130.149 51.8083 137.208 55.6042 143.797C56.4673 145.295 57.2459 147.006 57.4272 148.687C57.6044 150.33 56.9389 152.057 56.6954 153.754C55.9618 158.869 55.3675 164.006 54.5005 169.097C53.7696 173.389 55.0848 175.165 58.8523 174.437C64.1172 173.421 69.4108 172.526 74.6325 171.32C78.4336 170.443 81.7137 169.983 85.6508 172.045C92.4869 175.626 100.009 177.43 107.853 178.118C113.784 178.638 119.604 178.381 125.356 177.393C132.264 176.206 138.819 173.773 145.003 170.339C153.053 165.868 159.826 159.997 165.588 152.837C173.872 142.54 178.49 130.757 179.653 117.704C180.245 111.067 179.894 104.354 178.321 97.8072C175.296 85.2213 169.198 74.3497 159.741 65.0388Z" fill="white"/>
</g>
<path d="M159.851 65.1487C169.198 74.3497 175.296 85.2213 178.321 97.8072C179.894 104.354 180.245 111.067 179.653 117.704C178.49 130.757 173.872 142.54 165.588 152.837C159.826 159.997 153.053 165.868 145.003 170.339C138.819 173.773 132.264 176.206 125.356 177.393C119.605 178.381 113.784 178.638 107.853 178.118C100.009 177.43 92.487 175.625 85.6509 172.045C81.7138 169.983 78.4337 170.443 74.6326 171.32C69.4109 172.526 64.1173 173.421 58.8523 174.437C55.0849 175.165 53.7697 173.389 54.5006 169.097C55.3676 164.006 55.9619 158.868 56.6955 153.754C56.939 152.057 57.6045 150.33 57.4273 148.687C57.246 147.006 56.4674 145.295 55.6043 143.797C51.8084 137.208 49.3878 130.149 48.3804 122.646C47.8428 118.641 47.5465 114.578 47.5048 110.538C47.4233 102.623 49.2494 95.0643 52.1685 87.7192C55.9695 78.155 61.8269 70.0225 69.3892 63.1713C78.0897 55.2889 88.2322 50.0387 99.7409 47.4353C106.407 45.9274 113.192 45.6361 119.876 46.2545C132.696 47.4404 144.244 52.2751 154.424 60.2068C156.308 61.6745 157.974 63.421 159.851 65.1487ZM75.3499 135.827C77.2125 136.695 79.0122 137.753 80.9498 138.394C86.4186 140.204 92.073 140.183 97.654 139.22C100.33 138.758 103.01 137.713 105.417 136.425C111.516 133.162 113.718 127.533 113.792 120.97C113.897 111.677 113.819 102.382 113.818 93.0879C113.818 89.4519 112.231 87.8906 108.535 87.8905C107.364 87.8905 106.193 87.8876 105.022 87.8911C102.66 87.8983 100.637 89.8912 100.636 92.2285C100.633 101.669 100.731 111.111 100.559 120.549C100.521 122.603 99.8895 124.845 98.8891 126.642C96.8667 130.277 90.4656 131.009 86.2192 129.216C82.5041 127.648 81.3827 124.409 81.3376 120.808C81.222 111.588 81.2991 102.366 81.299 93.1451C81.299 89.4971 79.7009 87.8907 76.0722 87.8905C74.9013 87.8905 73.7303 87.8843 72.5595 87.892C70.7361 87.9039 68.1188 90.4948 68.1178 92.3093C68.1122 101.75 68.1342 111.19 68.1084 120.631C68.0916 126.755 70.2303 131.863 75.3499 135.827ZM125.244 147.798C125.246 151.119 127.053 152.93 130.364 152.93C136.468 152.93 137.549 151.862 137.549 145.833C137.549 143.014 137.549 140.194 137.549 137.498C139.932 138.169 142.152 138.958 144.439 139.408C152.458 140.987 159.848 137.229 163.321 129.878C166.188 123.811 166.394 117.372 164.771 110.904C162.281 100.977 153.762 96.3577 144.38 100.161C142.027 101.114 139.876 102.564 137.672 103.764C137.256 102.288 134.556 100.198 132.862 100.196C131.691 100.194 130.52 100.187 129.349 100.197C127.191 100.215 125.246 102.174 125.246 104.343C125.243 118.688 125.244 133.032 125.244 147.798Z" fill="#0095FF"/>
<path d="M75.1904 135.799C70.2302 131.864 68.0915 126.755 68.1083 120.631C68.1341 111.19 68.1121 101.75 68.1176 92.3094C68.1187 90.4949 70.736 87.9039 72.5593 87.892C73.7302 87.8844 74.9012 87.8905 76.0721 87.8906C79.7008 87.8907 81.2988 89.4972 81.2989 93.1452C81.2989 102.366 81.2219 111.588 81.3375 120.808C81.3826 124.409 82.504 127.648 86.2191 129.216C90.4654 131.009 96.8666 130.277 98.889 126.643C99.8894 124.845 100.521 122.603 100.559 120.549C100.731 111.111 100.632 101.669 100.636 92.2286C100.637 89.8912 102.66 87.8984 105.022 87.8912C106.193 87.8876 107.363 87.8905 108.534 87.8906C112.231 87.8907 113.818 89.452 113.818 93.088C113.818 102.382 113.897 111.677 113.792 120.97C113.717 127.533 111.516 133.162 105.417 136.425C103.01 137.713 100.33 138.758 97.6539 139.22C92.0729 140.183 86.4184 140.204 80.9497 138.394C79.0121 137.753 77.2124 136.695 75.1904 135.799Z" fill="white"/>
<path d="M125.244 147.588C125.244 133.032 125.242 118.688 125.246 104.343C125.246 102.174 127.191 100.215 129.349 100.197C130.52 100.187 131.691 100.194 132.862 100.196C134.556 100.198 137.256 102.288 137.672 103.764C139.876 102.564 142.027 101.114 144.379 100.161C153.761 96.3577 162.281 100.977 164.771 110.904C166.394 117.372 166.188 123.811 163.321 129.878C159.848 137.229 152.458 140.987 144.439 139.408C142.152 138.958 139.931 138.169 137.549 137.498C137.549 140.194 137.549 143.014 137.549 145.833C137.549 151.862 136.468 152.93 130.364 152.93C127.053 152.93 125.246 151.119 125.244 147.588ZM137.549 119.751C137.549 122.526 137.569 125.301 137.539 128.075C137.527 129.197 137.586 130.081 139.094 130.11C140.888 130.144 142.704 130.635 144.464 130.461C148.164 130.094 150.822 128.229 152.081 124.515C153.332 120.825 153.174 117.139 152.308 113.464C151.608 110.491 149.061 108.134 146.282 108.183C143.893 108.225 141.508 108.878 139.135 109.335C137.925 109.568 137.443 110.308 137.511 111.646C137.642 114.195 137.549 116.756 137.549 119.751Z" fill="white"/>
<path d="M137.549 119.531C137.549 116.756 137.642 114.195 137.511 111.646C137.443 110.308 137.925 109.568 139.135 109.335C141.508 108.878 143.893 108.225 146.282 108.183C149.061 108.133 151.607 110.491 152.308 113.464C153.174 117.139 153.332 120.825 152.081 124.515C150.822 128.229 148.164 130.094 144.463 130.461C142.704 130.635 140.888 130.144 139.094 130.11C137.586 130.081 137.527 129.197 137.539 128.075C137.569 125.301 137.549 122.526 137.549 119.531Z" fill="#0095FF"/>
</g>
<defs>
<filter id="filter0_d_64_737" x="25.7997" y="29.9384" width="171.921" height="172.387" filterUnits="userSpaceOnUse" color-interpolation-filters="sRGB">
<feFlood flood-opacity="0" result="BackgroundImageFix"/>
<feColorMatrix in="SourceAlpha" type="matrix" values="0 0 0 0 0 0 0 0 0 0 0 0 0 0 0 0 0 0 127 0" result="hardAlpha"/>
<feOffset dx="-2" dy="4"/>
<feGaussianBlur stdDeviation="4"/>
<feComposite in2="hardAlpha" operator="out"/>
<feColorMatrix type="matrix" values="0 0 0 0 0 0 0 0 0 0.584314 0 0 0 0 1 0 0 0 0.25 0"/>
<feBlend mode="normal" in2="BackgroundImageFix" result="effect1_dropShadow_64_737"/>
<feBlend mode="normal" in="SourceGraphic" in2="effect1_dropShadow_64_737" result="shape"/>
</filter>
<clipPath id="clip0_64_737">
<rect width="225" height="225" fill="white"/>
</clipPath>
</defs>
</svg>
